# xmcd
#
# Track frame offsets:
#   150
#   13909
#   27397
#   41618
#   69852
#   84243
#   101064
#   111018
#   122694
#   135358
#   146782
#   164347
#   184928
#   208152
#   222035
#   237677
#   250289
#   260698
#
# Disc length: 3608 seconds
#
# Revision: 0
# Processed by: cddbd v1.5PL3 Copyright (c) Steve Scherf et al.
# Submitted via: uFREEDB ActiveX Control 1.5
#
DISCID=090e1612
DTITLE=Roberto Corrêa - Esbrangente
DYEAR=1900
DGENRE=Country
TTITLE0=Pagode em Brasília
TTITLE1=Mazurca do Viajor
TTITLE2=eleja de Siriema com Cobra
TTITLE3=O Causo do Angelino - Chuva Fininha
TTITLE4=Tristezas do Jeca
TTITLE5=Manuelzão
TTITLE6=Inhuma do Badia
TTITLE7=Quase Verdade
TTITLE8=Lagartixa
TTITLE9=Viola Cor do Vinho - Cor de Saudade
TTITLE10=Benzim
TTITLE11=Antiqüera
TTITLE12=Rio Abaixo
TTITLE13=Fogo na Macega
TTITLE14=Viola Quebrada
TTITLE15=Siriema
TTITLE16=Desembolada
TTITLE17=Recorte do Velhote
EXTD=
EXTT0=
EXTT1=
EXTT2=
EXTT3=
EXTT4=
EXTT5=
EXTT6=
EXTT7=
EXTT8=
EXTT9=
EXTT10=
EXTT11=
EXTT12=
EXTT13=
EXTT14=
EXTT15=
EXTT16=
EXTT17=
PLAYORDER=
